<?xml version="1.0" encoding="UTF-8"?>
<svg version="1.1" xmlns="http://www.w3.org/2000/svg" width="415" height="331">
<path d="M0 0 C0.99 0.33 1.98 0.66 3 1 C3.921875 3.3359375 3.921875 3.3359375 4.75 6.375 C8.52405413 18.36652295 15.71278918 28.29279621 26.9375 34.3125 C40.87096558 40.61042644 55.01569456 40.93345877 70 39 C68.33940435 46.46394046 65.62378489 53.32867725 62.74609375 60.3984375 C60.89687505 65.08583436 59.47082259 68.86185805 60 74 C60.60585938 73.95359375 61.21171875 73.9071875 61.8359375 73.859375 C68.4263465 73.57548046 74.34617642 74.37947811 80 78 C85.92482051 85.85105139 84.1067642 98.27234779 84.1875 107.6875 C84.20063232 108.64897949 84.21376465 109.61045898 84.22729492 110.60107422 C84.24501805 126.5055355 84.24501805 126.5055355 79.75 131.5 C74.65960294 134.27658022 70.22662943 135.25017122 64.44790649 135.26069641 C63.14702591 135.26778122 61.84614532 135.27486603 60.50584412 135.28216553 C59.07632411 135.27987201 57.64680444 135.27736235 56.21728516 135.2746582 C54.70230356 135.27900844 53.18732417 135.28419263 51.67234802 135.29014587 C47.56690032 135.30351429 43.4615448 135.3041169 39.35607958 135.30158257 C35.92428677 135.3005113 32.49251249 135.30540029 29.06072366 135.310188 C20.96169224 135.32127593 12.86270721 135.32172474 4.76367188 135.31567383 C-3.58082689 135.3096352 -11.92515699 135.32194385 -20.26962698 135.3432439 C-27.44349756 135.36087997 -34.61731455 135.36685806 -41.791206 135.36360615 C-46.07157836 135.3617962 -50.35183042 135.36440064 -54.63218307 135.37832069 C-58.65910244 135.39092695 -62.6857596 135.38892864 -66.71267509 135.37590981 C-68.18642326 135.37355047 -69.66019004 135.37625559 -71.13391685 135.38453293 C-85.35445394 135.45861403 -85.35445394 135.45861403 -92 132 C-96.06387132 126.83885934 -96.57990491 122.64087637 -96.4609375 116.21484375 C-96.46002106 115.39552872 -96.45910461 114.57621368 -96.4581604 113.73207092 C-96.45215069 112.01004193 -96.43648433 110.28802209 -96.41162109 108.56616211 C-96.37505572 105.9414996 -96.3706027 103.31825046 -96.37109375 100.69335938 C-96.36126275 99.01300873 -96.34960581 97.33266756 -96.3359375 95.65234375 C-96.33371185 94.87406723 -96.33148621 94.09579071 -96.32919312 93.29393005 C-96.22675334 87.37105956 -95.57035245 82.81194514 -91.5625 78.1875 C-87.57870713 74.78670121 -84.67234687 74.90956455 -79.609375 75 C-77.66227118 74.99801922 -75.71516654 74.99597438 -73.76806641 74.99169922 C-71.77086343 74.99991418 -69.77396045 75.04857521 -67.77734375 75.09765625 C-60.64011116 75.1760476 -60.64011116 75.1760476 -54.51757812 72 C-51.14655569 67.94584069 -51.14655569 67.94584069 -50 63 C-48.68244412 61.65107374 -47.34441616 60.32215761 -46 59 C-44.02276067 56.67241769 -42.13646301 54.27640304 -40.25 51.875 C-39.49009766 50.92560547 -39.49009766 50.92560547 -38.71484375 49.95703125 C-35.95025319 46.85179193 -35.95025319 46.85179193 -35 43 C-33.36308823 41.30410042 -31.68981143 39.64319594 -30 38 C-23.69242307 30.97586724 -18.03625882 23.81396944 -12.9140625 15.8671875 C-9.13323901 10.20366823 -4.91307022 4.73166455 0 0 Z M58 72 C59 74 59 74 59 74 Z " fill="#0D0D0D" transform="translate(274,178)"/>
<path d="M0 0 C11.00781872 8.03626833 18.41337349 18.1991786 21.61328125 31.4921875 C22.85037567 47.25309173 19.63858543 57.90868867 10.09375 70.49609375 C3.10939126 78.39991237 -7.97915043 83.0467756 -18.3203125 83.765625 C-33.33249027 84.24649556 -46.08419427 81.02621529 -57.38671875 70.4921875 C-63.38671875 63.19898362 -63.38671875 63.19898362 -63.38671875 59.4921875 C-64.04671875 59.4921875 -64.70671875 59.4921875 -65.38671875 59.4921875 C-70.2426364 47.69626737 -71.15736743 34.84827346 -66.57421875 22.7421875 C-64.84417117 19.07372895 -62.72528238 15.79843263 -60.38671875 12.4921875 C-60.05671875 11.5021875 -59.72671875 10.5121875 -59.38671875 9.4921875 C-57.828125 8.17578125 -57.828125 8.17578125 -55.94921875 6.9296875 C-53.85505021 5.52628854 -52.18113863 4.28660738 -50.38671875 2.4921875 C-48.53751498 1.44525368 -46.65755271 0.45210343 -44.76171875 -0.5078125 C-43.75882812 -1.0234375 -42.7559375 -1.5390625 -41.72265625 -2.0703125 C-28.49931529 -7.76842664 -12.32235594 -7.78466349 0 0 Z " fill="#0E0E0E" transform="translate(352.38671875,126.5078125)"/>
<path d="M0 0 C5.3728996 1.20890241 8.3803411 3.84954872 12.265625 7.5390625 C13.87699313 9.21474728 13.87699313 9.21474728 16 9 C17.66666667 10.66666667 19.33333333 12.33333333 21 14 C21.99 14.33 22.98 14.66 24 15 C25.1393497 16.1393497 26.27504946 17.2825292 27.39453125 18.44140625 C34.01862506 24.87209586 41.84028709 30.19343188 49.17651367 35.78344727 C55.40415615 40.53153796 61.5895191 45.33239471 67.75976562 50.15478516 C71.87661997 53.367639 76.02381208 56.53347641 80.20776367 59.65844727 C82.44681214 61.3344548 84.66520476 63.03563928 86.875 64.75 C87.61492187 65.32234375 88.35484375 65.8946875 89.1171875 66.484375 C91 68 91 68 93 70 C92.96484375 71.953125 92.96484375 71.953125 92 74 C89.56640625 75.484375 89.56640625 75.484375 86.5625 76.75 C85.57378906 77.17796875 84.58507812 77.6059375 83.56640625 78.046875 C81 79 81 79 79 79 C78.67 79.66 78.34 80.32 78 81 C76.33720673 82.0064275 74.67016516 83.00585407 73 84 C71.37485532 85.45833358 71.37485532 85.45833358 70 87 C68.4375 88.6875 68.4375 88.6875 67 90 C66.34 90 65.68 90 65 90 C64.7525 90.680625 64.505 91.36125 64.25 92.0625 C63 95 63 95 61.0625 98.25 C56.31745855 106.45716428 54.84378241 115.80724088 53 125 C49.58612823 124.42484186 48.08755541 123.38611995 45.7734375 120.84765625 C42.02172837 116.93104781 37.95658388 113.68764931 33.625 110.4375 C32.87766602 109.8703125 32.13033203 109.303125 31.36035156 108.71875 C26.92076534 105.37118215 22.41298949 102.20164 17.7265625 99.20703125 C15.9940598 97.99584724 14.58941895 96.707584 13.125 95.1875 C11.11496449 92.78269484 11.11496449 92.78269484 8 92 C6.30682804 90.36026702 4.64347947 88.68953568 3 87 C-4.07405743 80.72749078 -4.07405743 80.72749078 -12.125 75.875 C-15 74 -15 74 -16.00390625 71.0234375 C-16.56747159 65.59106014 -13.43163149 61.29332445 -10.8125 56.75 C-4.19276596 45.02558159 -0.42412879 35.47287529 -0.25 21.875 C-0.22035156 20.75996094 -0.19070312 19.64492188 -0.16015625 18.49609375 C-0.00764966 12.33047027 0.02607705 6.16722176 0 0 Z " fill="#0F0F0F" transform="translate(221,40)"/>
<path d="M0 0 C1 3 1 3 0.375 5.375 C-1 8 -1 8 -3.44140625 10.26171875 C-9.96143291 17.23964041 -10.67347793 28.41950354 -10.39453125 37.59375 C-9.68158046 43.7491271 -8.20396321 50.21337985 -4.30078125 55.1484375 C-3.65689453 56.06496094 -3.65689453 56.06496094 -3 57 C-3.33 57.99 -3.66 58.98 -4 60 C-6.06274414 60.82788086 -6.06274414 60.82788086 -8.78515625 61.46484375 C-9.78417969 61.7057373 -10.78320312 61.94663086 -11.8125 62.19482422 C-12.885 62.43990723 -13.9575 62.68499023 -15.0625 62.9375 C-17.2513122 63.45959302 -19.44011425 63.98172859 -21.62890625 64.50390625 C-22.70930176 64.75672363 -23.78969727 65.00954102 -24.90283203 65.27001953 C-29.11287518 66.26229677 -33.30671518 67.31456725 -37.5 68.375 C-39.66666667 68.91666667 -41.83333333 69.45833333 -44 70 C-44 70.66 -44 71.32 -44 72 C-44.59683594 72.05285156 -45.19367188 72.10570313 -45.80859375 72.16015625 C-49.08108662 73.41432018 -49.56335365 75.30501262 -51.0625 78.4375 C-51.49151611 79.32743652 -51.49151611 79.32743652 -51.92919922 80.23535156 C-55.54722836 87.89904626 -58.76520867 95.7544343 -62.00415039 103.58374023 C-70.19255437 123.30030129 -70.19255437 123.30030129 -77 127 C-77.7734375 127.804375 -77.7734375 127.804375 -78.5625 128.625 C-81.3231352 131.26560758 -84.25864148 132 -88 132 C-89.37793304 129.35012877 -90.70071217 126.68885849 -92 124 C-92.54011719 122.90042969 -93.08023438 121.80085938 -93.63671875 120.66796875 C-94.46623047 118.88326172 -94.46623047 118.88326172 -95.3125 117.0625 C-95.84488281 115.93972656 -96.37726563 114.81695312 -96.92578125 113.66015625 C-99.03525721 106.47259633 -96.81668046 99.56063188 -94.41796875 92.66796875 C-94.16251785 91.91010574 -93.90706696 91.15224274 -93.64387512 90.37141418 C-92.83359774 87.97378545 -92.01089521 85.5806513 -91.1875 83.1875 C-90.64694125 81.59598995 -90.10722153 80.00419467 -89.56835938 78.41210938 C-87.63285544 72.70187363 -85.68857771 66.99474575 -83.72119141 61.29541016 C-83.35558105 60.22468262 -82.9899707 59.15395508 -82.61328125 58.05078125 C-82.29786377 57.13594971 -81.98244629 56.22111816 -81.6574707 55.27856445 C-80.86138221 52.91485293 -80.86138221 52.91485293 -81 50 C-80.34 50 -79.68 50 -79 50 C-78.855625 49.0925 -78.71125 48.185 -78.5625 47.25 C-78.13590527 44.78523044 -77.64925779 42.41152893 -77 40 C-76.34 40 -75.68 40 -75 40 C-74.94972656 39.11248047 -74.94972656 39.11248047 -74.8984375 38.20703125 C-73.49028136 34.74786508 -70.95310921 34.19994876 -67.625 32.6875 C-61.90390021 30.00573447 -56.64063572 26.98060809 -51.34765625 23.51171875 C-44.34108527 19 -44.34108527 19 -41 19 C-40.67 18.34 -40.34 17.68 -40 17 C-37.55857399 15.70800449 -35.11875652 14.49485291 -32.625 13.3125 C-27.53903 10.84679819 -22.67388305 8.29224203 -17.9375 5.1875 C-7.0972071 -1.90412874 -7.0972071 -1.90412874 0 0 Z " fill="#101010" transform="translate(143,17)"/>
<path d="M0 0 C1.73648538 6.47235461 -0.7015371 10.59484434 -3.7175293 16.18139648 C-4.63659058 17.76029663 -4.63659058 17.76029663 -5.57421875 19.37109375 C-6.0672625 20.22188255 -6.0672625 20.22188255 -6.57026672 21.08985901 C-7.605657 22.87457954 -8.64646089 24.65606982 -9.6875 26.4375 C-10.39684731 27.65799226 -11.10583489 28.87869367 -11.81445312 30.09960938 C-13.53882387 33.06883142 -15.26805969 36.03518538 -17 39 C-17.66 39 -18.32 39 -19 39 C-19.23460937 39.81726563 -19.46921875 40.63453125 -19.7109375 41.4765625 C-21.26733657 45.73071995 -23.36169958 49.46373396 -25.625 53.375 C-26.04523438 54.11105469 -26.46546875 54.84710938 -26.8984375 55.60546875 C-27.92752764 57.4063765 -28.96310756 59.20357318 -30 61 C-30.66 61 -31.32 61 -32 61 C-32.09796875 61.56589844 -32.1959375 62.13179687 -32.296875 62.71484375 C-33.15374128 65.49965916 -34.46268675 67.26619102 -36.25 69.5625 C-36.83265625 70.32691406 -37.4153125 71.09132813 -38.015625 71.87890625 C-45.40098134 79.77309619 -58.68513292 81.90398434 -68.6875 84.8125 C-71.0638806 85.50493892 -73.44018099 86.1976532 -75.81640625 86.890625 C-77.0089502 87.23802734 -78.20149414 87.58542969 -79.43017578 87.94335938 C-82.88976235 88.9673705 -86.33433946 90.03107423 -89.77734375 91.109375 C-90.84702393 91.43832764 -91.9167041 91.76728027 -93.01879883 92.10620117 C-95.03186722 92.72595979 -97.04115653 93.35818506 -99.0456543 94.00512695 C-106.40700543 96.24041272 -112.30185438 96.61373627 -119.4375 93.5 C-120.283125 93.005 -121.12875 92.51 -122 92 C-122.66 91.67 -123.32 91.34 -124 91 C-126.66666667 89.66666667 -129.33333333 88.33333333 -132 87 C-132 86.34 -132 85.68 -132 85 C-132.66 85 -133.32 85 -134 85 C-132.7264708 80.5032603 -131.08734784 77.41762142 -128.125 73.8125 C-127.44695312 72.97332031 -126.76890625 72.13414062 -126.0703125 71.26953125 C-122.31072933 67.14817687 -118.69529936 65.31820739 -113.5 63.3125 C-112.16003877 62.7893633 -110.82020172 62.26590848 -109.48046875 61.7421875 C-108.76165527 61.46342773 -108.0428418 61.18466797 -107.30224609 60.89746094 C-103.12852839 59.27046345 -98.97140091 57.60192174 -94.8125 55.9375 C-93.96187988 55.59823486 -93.11125977 55.25896973 -92.23486328 54.90942383 C-86.49664372 52.6162485 -80.79304174 50.25649389 -75.1171875 47.8125 C-73 47 -73 47 -71 47 C-70.773125 45.72125 -70.54625 44.4425 -70.3125 43.125 C-69.16180002 37.34701712 -67.58035447 31.71786031 -65.96264648 26.05737305 C-64.8548439 22.15954915 -63.80438905 18.26469766 -62.890625 14.31640625 C-62.71837402 13.57922363 -62.54612305 12.84204102 -62.36865234 12.08251953 C-62.04551495 10.67842202 -61.73290882 9.27184905 -61.43212891 7.86279297 C-60.9921875 5.96484375 -60.9921875 5.96484375 -60 3 C-59.01 2.67 -58.02 2.34 -57 2 C-56.01 2.495 -56.01 2.495 -55 3 C-55 3.66 -55 4.32 -55 5 C-54.195625 5.268125 -53.39125 5.53625 -52.5625 5.8125 C-50.72121706 6.42626098 -48.87979903 7.050391 -47.08984375 7.80078125 C-36.4521668 11.99620151 -25.59671071 10.50375112 -15 7 C-13.60596625 6.59787488 -12.21036273 6.20110584 -10.8125 5.8125 C-9.884375 5.544375 -8.95625 5.27625 -8 5 C-7.67 3.68 -7.34 2.36 -7 1 C-4.50935112 0.31292445 -2.62113708 0 0 0 Z " fill="#121212" transform="translate(208,81)"/>
<path d="M0 0 C9.06912902 6.32949629 16.65842769 14.73844617 18.8125 25.875 C19.42117149 32.99177437 18.4787357 39.29361407 16.56640625 46.1484375 C15.7727762 48.85242775 15.7727762 48.85242775 15.33203125 51.58203125 C13.79180881 58.37985512 4.24236528 63.37625836 -1.1875 66.875 C-10.35651392 72.07020113 -24.17629571 71.03386329 -34.1875 68.9375 C-39.61687589 67.22561023 -43.22952848 63.71283703 -47.19140625 59.73828125 C-48.97606829 57.64754359 -48.97606829 57.64754359 -51.1875 57.875 C-52.00292431 55.79280951 -52.81473189 53.70920239 -53.625 51.625 C-54.07746094 50.46484375 -54.52992188 49.3046875 -54.99609375 48.109375 C-58.9026588 37.50401152 -58.04393083 26.36529111 -54.1875 15.875 C-54.03023437 15.17246094 -53.87296875 14.46992188 -53.7109375 13.74609375 C-52.84336197 10.64483496 -50.52777173 8.93422293 -48.1875 6.875 C-47.14916016 5.90626953 -47.14916016 5.90626953 -46.08984375 4.91796875 C-33.12087142 -6.44833383 -15.19404754 -8.74717079 0 0 Z " fill="#0D0E0E" transform="translate(196.1875,16.125)"/>
<path d="M0 0 C0 0.99 0 1.98 0 3 C-5.577095 7.30957341 -9.40913863 8.12225462 -16.31158447 8.14044189 C-17.60971573 8.14615204 -18.90784698 8.15186218 -20.24531555 8.15774536 C-21.68209829 8.15899065 -23.11888114 8.16011576 -24.55566406 8.16113281 C-26.07034933 8.1657627 -27.58503343 8.17078759 -29.09971619 8.17617798 C-33.2135212 8.18928828 -37.32730991 8.19574436 -41.44113255 8.20018864 C-44.01282787 8.20312181 -46.58451876 8.2072271 -49.15621185 8.21169281 C-57.2069011 8.22536465 -65.25758018 8.23503262 -73.30828023 8.2388947 C-82.59322746 8.24337365 -91.87802734 8.26091526 -101.16292977 8.2898953 C-108.34524468 8.31153243 -115.52751819 8.32160008 -122.70986533 8.32293582 C-126.99698539 8.32398247 -131.28396688 8.32986031 -135.57105255 8.34775543 C-139.60613794 8.36427112 -143.64098112 8.36637474 -147.67608833 8.35761642 C-149.15306562 8.3568479 -150.63005611 8.36116442 -152.10700035 8.37107468 C-166.26266921 8.46045123 -166.26266921 8.46045123 -173 5 C-173.33 4.34 -173.66 3.68 -174 3 C-173.18261998 3.2117828 -173.18261998 3.2117828 -172.34872723 3.42784405 C-164.4864616 5.24942488 -156.78184884 5.28999952 -148.74731445 5.2746582 C-147.23012035 5.27901333 -145.71292844 5.28419913 -144.19573975 5.29014587 C-140.10299212 5.30345539 -136.01033728 5.304124 -131.91757226 5.30158257 C-128.49294049 5.30050821 -125.06832714 5.30540765 -121.64369935 5.310188 C-113.5647795 5.32125351 -105.48590617 5.3217361 -97.40698242 5.31567383 C-89.08396572 5.30962445 -80.76111766 5.32197622 -72.43812972 5.3432439 C-65.27608361 5.36086921 -58.11409116 5.36686012 -50.95202416 5.36360615 C-46.68124462 5.36179597 -42.41058563 5.36440379 -38.13982582 5.37832069 C-34.12680936 5.39091102 -30.1140562 5.38894369 -26.1010437 5.37590981 C-24.63170978 5.37354778 -23.16235723 5.37626532 -21.69304466 5.38453293 C-11.40436865 5.57633462 -11.40436865 5.57633462 -2 2 C-1.34 1.34 -0.68 0.68 0 0 Z " fill="#626262" transform="translate(355,305)"/>
<path d="M0 0 C49.17 0 98.34 0 149 0 C149 0.33 149 0.66 149 1 C99.83 1 50.66 1 0 1 C0 0.67 0 0.34 0 0 Z " fill="#7F7F7F" transform="translate(195,314)"/>
<path d="M0 0 C0.99 0.33 1.98 0.66 3 1 C3.921875 3.3359375 3.921875 3.3359375 4.75 6.375 C8.77166775 19.15328017 16.42182725 28.33747252 28 35 C25 36 25 36 22 35 C22 34.34 22 33.68 22 33 C21.40960938 32.73316406 20.81921875 32.46632812 20.2109375 32.19140625 C10.18412515 26.78826532 4.63641047 15.24612127 1 5 C-2.53600465 6.91135386 -4.78972846 8.62642766 -7 12 C-7.66 11.67 -8.32 11.34 -9 11 C-8.06558465 9.72689688 -7.12732889 8.456612 -6.1875 7.1875 C-5.66542969 6.47980469 -5.14335937 5.77210938 -4.60546875 5.04296875 C-3.16871123 3.21468607 -1.68184237 1.60103312 0 0 Z " fill="#717171" transform="translate(274,178)"/>
<path d="M0 0 C4 1.33333333 8 2.66666667 12 4 C19.19322356 4.39756891 26.16569265 4.38937793 33.1328125 2.4375 C35 2 35 2 39 2 C39 2.66 39 3.32 39 4 C37.01432292 4.48828125 35.02864583 4.9765625 33.04296875 5.46484375 C31.34316798 5.91010705 29.66698046 6.44433985 28 7 C18.74374806 7.64751304 9.24087837 7.95779202 1 3 C0.67 2.01 0.34 1.02 0 0 Z " fill="#515251" transform="translate(156,87)"/>
<path d="M0 0 C3.94560738 0.59764347 7.67156209 1.44945695 11.5 2.5625 C21.5388053 5.11579415 31.81107236 4.31470034 42 3 C41 5 41 5 38.5625 6.125 C33.93135248 7.26247483 29.74280153 7.20766504 25 7 C23.56914062 6.95552734 23.56914062 6.95552734 22.109375 6.91015625 C14.6948201 6.51225474 7.80233705 5.06047423 1 2 C0.67 1.34 0.34 0.68 0 0 Z " fill="#797A79" transform="translate(302,214)"/>
<path d="M0 0 C8.99397595 0.85656914 14.06220738 6.79093767 20 13 C16.47773766 13 15.95232511 12.41326439 13.3125 10.25 C10.49581368 8.03316354 7.81583756 6.31629092 4.5625 4.8125 C1 3 1 3 0 0 Z " fill="#4E4E4E" transform="translate(188,14)"/>
<path d="M0 0 C0.99 0.33 1.98 0.66 3 1 C3.73046875 3.06640625 3.73046875 3.06640625 4.1875 5.5625 C4.34605469 6.38878906 4.50460937 7.21507812 4.66796875 8.06640625 C4.77753906 8.70449219 4.88710938 9.34257812 5 10 C4.01 10.495 4.01 10.495 3 11 C2.34 9.02 1.68 7.04 1 5 C-2.53600465 6.91135386 -4.78972846 8.62642766 -7 12 C-7.66 11.67 -8.32 11.34 -9 11 C-8.06558465 9.72689688 -7.12732889 8.456612 -6.1875 7.1875 C-5.66542969 6.47980469 -5.14335937 5.77210938 -4.60546875 5.04296875 C-3.16871123 3.21468607 -1.68184237 1.60103312 0 0 Z " fill="#4B4B4B" transform="translate(274,178)"/>
<path d="M0 0 C0.33 0.66 0.66 1.32 1 2 C-4.91667937 9.73533081 -10.87830483 17.42482971 -17 25 C-17.66 24.34 -18.32 23.68 -19 23 C-18.45859375 22.48695313 -17.9171875 21.97390625 -17.359375 21.4453125 C-14.43462598 18.41403288 -11.85015367 15.1849069 -9.25 11.875 C-8.74339844 11.24207031 -8.23679688 10.60914063 -7.71484375 9.95703125 C-4.95025319 6.85179193 -4.95025319 6.85179193 -4 3 C-2 1.375 -2 1.375 0 0 Z " fill="#606060" transform="translate(243,218)"/>
<path d="M0 0 C1.0257259 4.41062136 1.03684712 6.92630576 -1 11 C-1.68707555 8.50935112 -2 6.62113708 -2 4 C-4.91517292 5.07401108 -6.77810176 5.77810176 -9 8 C-9.99 8 -10.98 8 -12 8 C-12 7.34 -12 6.68 -12 6 C-10.68 5.67 -9.36 5.34 -8 5 C-7.67 3.68 -7.34 2.36 -7 1 C-4.50935112 0.31292445 -2.62113708 0 0 0 Z " fill="#464646" transform="translate(208,81)"/>
<path d="M0 0 C5.73091655 2.2349326 9.9590812 4.30732011 14 9 C8.7024666 8.48316747 5.33237013 6.97319519 1 4 C0.30078125 1.86328125 0.30078125 1.86328125 0 0 Z " fill="#474747" transform="translate(344,123)"/>
<path d="M0 0 C0 3 0 3 -2.1875 5.26171875 C-3.115625 6.06222656 -4.04375 6.86273438 -5 7.6875 C-5.928125 8.49574219 -6.85625 9.30398437 -7.8125 10.13671875 C-8.8953125 11.05904297 -8.8953125 11.05904297 -10 12 C-10.66 11.67 -11.32 11.34 -12 11 C-10.89157614 7.67472842 -10.35396679 7.28880542 -7.5625 5.4375 C-5.46833146 4.03410104 -3.79441988 2.79441988 -2 1 C-1.34 0.67 -0.68 0.34 0 0 Z " fill="#333333" transform="translate(304,128)"/>
<path d="M0 0 C9.57 0 19.14 0 29 0 C29 0.33 29 0.66 29 1 C19.43 1 9.86 1 0 1 C0 0.67 0 0.34 0 0 Z " fill="#070707" transform="translate(188,251)"/>
<path d="M0 0 C5.54050113 0.56825653 10.03715966 2.62886517 15 5 C15 5.99 15 6.98 15 8 C9.8400388 5.96317321 4.95880485 3.47940243 0 1 C0 0.67 0 0.34 0 0 Z " fill="#555555" transform="translate(76,167)"/>
<path d="M0 0 C-2.26882087 0.83919398 -4.53977027 1.67151724 -6.8125 2.5 C-7.45509766 2.73847656 -8.09769531 2.97695312 -8.75976562 3.22265625 C-11.64933739 4.27068746 -13.90076061 5 -17 5 C-17 4.34 -17 3.68 -17 3 C-14.92085336 2.29994051 -12.83648414 1.61537756 -10.75 0.9375 C-9.58984375 0.55464844 -8.4296875 0.17179688 -7.234375 -0.22265625 C-4.19922915 -0.95211763 -2.84296787 -1.11889082 0 0 Z " fill="#5C5C5C" transform="translate(147,163)"/>
<path d="M0 0 C0 0.66 0 1.32 0 2 C-0.66 2 -1.32 2 -2 2 C-2.4021875 2.86625 -2.4021875 2.86625 -2.8125 3.75 C-4.01719859 6.0325868 -5.40798115 7.9737942 -7 10 C-7.66 9.67 -8.32 9.34 -9 9 C-8.67 7.68 -8.34 6.36 -8 5 C-7.34 5 -6.68 5 -6 5 C-5.896875 4.360625 -5.79375 3.72125 -5.6875 3.0625 C-5.460625 2.381875 -5.23375 1.70125 -5 1 C-2 0 -2 0 0 0 Z " fill="#272727" transform="translate(74,52)"/>
<path d="M0 0 C2 2 2 2 2 6 C5.3 6 8.6 6 12 6 C12 6.33 12 6.66 12 7 C7.38 7 2.76 7 -2 7 C-1 2 -1 2 0 0 Z M0 4 C1 6 1 6 1 6 Z " fill="#AFAFAD" transform="translate(332,246)"/>
<path d="M0 0 C7.48291572 6.15034169 7.48291572 6.15034169 10 10 C6.89257577 8.53181332 4.09528261 6.79975 1.25 4.875 C0.45078125 4.33617187 -0.3484375 3.79734375 -1.171875 3.2421875 C-1.77515625 2.83226562 -2.3784375 2.42234375 -3 2 C-2.01 1.34 -1.02 0.68 0 0 Z " fill="#2F2F30" transform="translate(198,18)"/>
<path d="M0 0 C4.95 0.99 9.9 1.98 15 3 C15 3.33 15 3.66 15 4 C9.67796569 5.46355943 5.76552205 4.58179834 1 2 C0.67 1.34 0.34 0.68 0 0 Z " fill="#444444" transform="translate(181,308)"/>
<path d="M0 0 C0.33 0.66 0.66 1.32 1 2 C0.22265625 3.7265625 0.22265625 3.7265625 -0.9375 5.625 C-1.618125 6.73875 -2.29875 7.8525 -3 9 C-3.99 9 -4.98 9 -6 9 C-5.52797514 4.75177626 -3.03344482 2.80010291 0 0 Z " fill="#434343" transform="translate(148,23)"/>
<path d="M0 0 C0.66 0 1.32 0 2 0 C0.94124926 3.40312738 -0.00902154 6.01353231 -2 9 C-2.66 8.67 -3.32 8.34 -4 8 C-2.68 5.36 -1.36 2.72 0 0 Z " fill="#414141" transform="translate(290,141)"/>
<path d="M0 0 C3.45925163 1.2491742 6.14693203 2.67527795 9 5 C8.67 5.66 8.34 6.32 8 7 C6.66382648 6.02471263 5.3311249 5.04466681 4 4.0625 C3.2575 3.51722656 2.515 2.97195312 1.75 2.41015625 C1.1725 1.94480469 0.595 1.47945312 0 1 C0 0.67 0 0.34 0 0 Z " fill="#414141" transform="translate(223,41)"/>
<path d="M0 0 C4.62 0 9.24 0 14 0 C14 0.33 14 0.66 14 1 C9.38 1 4.76 1 0 1 C0 0.67 0 0.34 0 0 Z " fill="#8F9090" transform="translate(320,217)"/>
<path d="M0 0 C2.31 0 4.62 0 7 0 C7 0.33 7 0.66 7 1 C4.69 1 2.38 1 0 1 C0 0.67 0 0.34 0 0 Z " fill="#424343" transform="translate(328,119)"/>
<path d="M0 0 C0.33 0 0.66 0 1 0 C1 2.31 1 4.62 1 7 C0.67 7 0.34 7 0 7 C0 4.69 0 2.38 0 0 Z " fill="#080808" transform="translate(219,68)"/>
<path d="M0 0 C2.31 0 4.62 0 7 0 C7 0.33 7 0.66 7 1 C4.69 1 2.38 1 0 1 C0 0.67 0 0.34 0 0 Z " fill="#585A59" transform="translate(172,9)"/>
<path d="M0 0 C0.33 0 0.66 0 1 0 C1 1.98 1 3.96 1 6 C0.67 6 0.34 6 0 6 C0 4.02 0 2.04 0 0 Z " fill="#090909" transform="translate(137,49)"/>
<path d="M0 0 C0.33 0 0.66 0 1 0 C1 1.98 1 3.96 1 6 C0.67 6 0.34 6 0 6 C0 4.02 0 2.04 0 0 Z " fill="#5F6261" transform="translate(133,44)"/>
<path d="M0 0 C1.65 0 3.3 0 5 0 C5 0.33 5 0.66 5 1 C3.35 1 1.7 1 0 1 C0 0.67 0 0.34 0 0 Z " fill="#919291" transform="translate(315,216)"/>
<path d="M0 0 C0.33 0 0.66 0 1 0 C1 1.65 1 3.3 1 5 C0.67 5 0.34 5 0 5 C0 3.35 0 1.7 0 0 Z " fill="#535353" transform="translate(219,59)"/>
<path d="M0 0 C4 1 4 1 4 1 Z " fill="#9EA19F" transform="translate(334,216)"/>
<path d="M0 0 C1 4 1 4 1 4 Z " fill="#3F4041" transform="translate(374,174)"/>
<path d="M0 0 C1 4 1 4 1 4 Z " fill="#3A3839" transform="translate(282,173)"/>
<path d="M0 0 C1 4 1 4 1 4 Z " fill="#313738" transform="translate(375,169)"/>
<path d="M0 0 C4 1 4 1 4 1 Z " fill="#A2A7A6" transform="translate(168,90)"/>
<path d="M0 0 C4 1 4 1 4 1 Z " fill="#787878" transform="translate(183,89)"/>
<path d="M0 0 C1 4 1 4 1 4 Z " fill="#626664" transform="translate(133,53)"/>
<path d="M0 0 C4 1 4 1 4 1 Z " fill="#2B2D2B" transform="translate(180,10)"/>
<path d="M0 0 C4 1 4 1 4 1 Z " fill="#282B29" transform="translate(167,10)"/>
<path d="M0 0 C3 1 3 1 3 1 Z " fill="#040505" transform="translate(318,120)"/>
<path d="" fill="#525252" transform="translate(0,0)"/>
<path d="M0 0 C3 1 3 1 3 1 Z " fill="#5B5A5A" transform="translate(179,87)"/>
<path d="M0 0 C3 1 3 1 3 1 Z " fill="#484848" transform="translate(172,87)"/>
<path d="M0 0 C3 1 3 1 3 1 Z " fill="#1D1D1D" transform="translate(106,85)"/>
<path d="M0 0 C3 1 3 1 3 1 Z " fill="#4D4D4D" transform="translate(131,79)"/>
<path d="" fill="#5A5A5A" transform="translate(0,0)"/>
<path d="" fill="#5A5A5A" transform="translate(0,0)"/>
<path d="" fill="#121212" transform="translate(0,0)"/>
<path d="" fill="#515352" transform="translate(0,0)"/>
<path d="" fill="#49494C" transform="translate(0,0)"/>
<path d="M0 0 C2 1 2 1 2 1 Z " fill="#555555" transform="translate(187,313)"/>
<path d="" fill="#2B2B2B" transform="translate(0,0)"/>
<path d="" fill="#797979" transform="translate(0,0)"/>
<path d="" fill="#888888" transform="translate(0,0)"/>
<path d="" fill="#747474" transform="translate(0,0)"/>
<path d="M0 0 C2 1 2 1 2 1 Z " fill="#272727" transform="translate(314,209)"/>
<path d="M0 0 C2 1 2 1 2 1 Z " fill="#7E7E7E" transform="translate(294,207)"/>
<path d="" fill="#8E8E8E" transform="translate(0,0)"/>
<path d="" fill="#848484" transform="translate(0,0)"/>
<path d="" fill="#545458" transform="translate(0,0)"/>
<path d="" fill="#6C6C6D" transform="translate(0,0)"/>
<path d="M0 0 C2 1 2 1 2 1 Z " fill="#404040" transform="translate(101,177)"/>
<path d="M0 0 C2 1 2 1 2 1 Z " fill="#2E2E2E" transform="translate(95,177)"/>
<path d="M0 0 C2 1 2 1 2 1 Z " fill="#959595" transform="translate(110,175)"/>
<path d="M0 0 C2 1 2 1 2 1 Z " fill="#8A8A8A" transform="translate(89,175)"/>
<path d="M0 0 C2 1 2 1 2 1 Z " fill="#9F9F9F" transform="translate(112,174)"/>
<path d="M0 0 C2 1 2 1 2 1 Z " fill="#1A1A1A" transform="translate(118,172)"/>
<path d="M0 0 C2 1 2 1 2 1 Z " fill="#636363" transform="translate(122,171)"/>
<path d="M0 0 C2 1 2 1 2 1 Z " fill="#939393" transform="translate(130,169)"/>
<path d="M0 0 C2 1 2 1 2 1 Z " fill="#919191" transform="translate(133,168)"/>
<path d="" fill="#191919" transform="translate(0,0)"/>
<path d="M0 0 C2 1 2 1 2 1 Z " fill="#C1C1C1" transform="translate(135,167)"/>
<path d="M0 0 C2 1 2 1 2 1 Z " fill="#6A6A6A" transform="translate(142,165)"/>
<path d="M0 0 C2 1 2 1 2 1 Z " fill="#626262" transform="translate(145,164)"/>
<path d="M0 0 C2 1 2 1 2 1 Z " fill="#707070" transform="translate(152,162)"/>
<path d="" fill="#1D1D1D" transform="translate(0,0)"/>
<path d="" fill="#707070" transform="translate(0,0)"/>
<path d="M0 0 C2 1 2 1 2 1 Z " fill="#343434" transform="translate(101,140)"/>
<path d="M0 0 C2 1 2 1 2 1 Z " fill="#232323" transform="translate(109,137)"/>
<path d="M0 0 C2 1 2 1 2 1 Z " fill="#282828" transform="translate(111,136)"/>
<path d="M0 0 C2 1 2 1 2 1 Z " fill="#727272" transform="translate(125,130)"/>
<path d="M0 0 C2 1 2 1 2 1 Z " fill="#747474" transform="translate(131,128)"/>
<path d="M0 0 C2 1 2 1 2 1 Z " fill="#434343" transform="translate(133,127)"/>
<path d="M0 0 C2 1 2 1 2 1 Z " fill="#515251" transform="translate(343,121)"/>
<path d="M0 0 C2 1 2 1 2 1 Z " fill="#2E3030" transform="translate(340,120)"/>
<path d="" fill="#1D1C1B" transform="translate(0,0)"/>
<path d="" fill="#252525" transform="translate(0,0)"/>
<path d="" fill="#202020" transform="translate(0,0)"/>
<path d="" fill="#8D8D90" transform="translate(0,0)"/>
<path d="" fill="#646465" transform="translate(0,0)"/>
<path d="M0 0 C2 1 2 1 2 1 Z " fill="#ECEDEC" transform="translate(178,90)"/>
<path d="M0 0 C2 1 2 1 2 1 Z " fill="#555656" transform="translate(165,89)"/>
<path d="" fill="#0E0E0E" transform="translate(0,0)"/>
<path d="M0 0 C2 1 2 1 2 1 Z " fill="#030303" transform="translate(103,86)"/>
<path d="M0 0 C2 1 2 1 2 1 Z " fill="#4C514F" transform="translate(189,85)"/>
<path d="M0 0 C2 1 2 1 2 1 Z " fill="#6F6F6F" transform="translate(162,85)"/>
<path d="M0 0 C2 1 2 1 2 1 Z " fill="#656565" transform="translate(121,82)"/>
<path d="M0 0 C2 1 2 1 2 1 Z " fill="#6D6D6D" transform="translate(124,81)"/>
<path d="" fill="#343431" transform="translate(0,0)"/>
<path d="" fill="#171717" transform="translate(0,0)"/>
<path d="" fill="#08080A" transform="translate(0,0)"/>
<path d="" fill="#232323" transform="translate(0,0)"/>
<path d="" fill="#000000" transform="translate(0,0)"/>
<path d="" fill="#464646" transform="translate(0,0)"/>
<path d="M0 0 C2 1 2 1 2 1 Z " fill="#0D0D0C" transform="translate(135,15)"/>
<path d="M0 0 C2 1 2 1 2 1 Z " fill="#888888" transform="translate(190,12)"/>
<path d="" fill="#626262" transform="translate(0,0)"/>
<path d="" fill="#7D7D7D" transform="translate(0,0)"/>
<path d="" fill="#919191" transform="translate(0,0)"/>
<path d="" fill="#A1A1A1" transform="translate(0,0)"/>
<path d="" fill="#6F6F6F" transform="translate(0,0)"/>
<path d="" fill="#ADADAD" transform="translate(0,0)"/>
<path d="" fill="#ACACAC" transform="translate(0,0)"/>
<path d="" fill="#2B2B2B" transform="translate(0,0)"/>
<path d="" fill="#2A2A2A" transform="translate(0,0)"/>
<path d="" fill="#3A3A3A" transform="translate(0,0)"/>
<path d="" fill="#000000" transform="translate(0,0)"/>
<path d="" fill="#81817E" transform="translate(0,0)"/>
<path d="" fill="#444444" transform="translate(0,0)"/>
<path d="" fill="#2D2D2D" transform="translate(0,0)"/>
<path d="" fill="#000000" transform="translate(0,0)"/>
<path d="" fill="#BBBBBA" transform="translate(0,0)"/>
<path d="" fill="#303030" transform="translate(0,0)"/>
<path d="" fill="#8A8A8A" transform="translate(0,0)"/>
<path d="" fill="#717171" transform="translate(0,0)"/>
<path d="" fill="#7F7F7F" transform="translate(0,0)"/>
<path d="" fill="#969695" transform="translate(0,0)"/>
<path d="" fill="#979796" transform="translate(0,0)"/>
<path d="" fill="#969696" transform="translate(0,0)"/>
<path d="" fill="#808080" transform="translate(0,0)"/>
<path d="" fill="#7C7C7C" transform="translate(0,0)"/>
<path d="" fill="#686868" transform="translate(0,0)"/>
<path d="" fill="#D3D3D3" transform="translate(0,0)"/>
<path d="" fill="#939393" transform="translate(0,0)"/>
<path d="" fill="#373737" transform="translate(0,0)"/>
<path d="" fill="#989898" transform="translate(0,0)"/>
<path d="" fill="#959595" transform="translate(0,0)"/>
<path d="" fill="#262626" transform="translate(0,0)"/>
<path d="" fill="#252525" transform="translate(0,0)"/>
<path d="" fill="#A8A8A8" transform="translate(0,0)"/>
<path d="" fill="#000000" transform="translate(0,0)"/>
<path d="" fill="#2F2F2F" transform="translate(0,0)"/>
<path d="" fill="#909090" transform="translate(0,0)"/>
<path d="" fill="#6E6E6E" transform="translate(0,0)"/>
<path d="" fill="#252624" transform="translate(0,0)"/>
<path d="" fill="#9E9E9E" transform="translate(0,0)"/>
<path d="" fill="#818181" transform="translate(0,0)"/>
<path d="" fill="#525253" transform="translate(0,0)"/>
<path d="" fill="#BFBFBF" transform="translate(0,0)"/>
<path d="" fill="#2E2D30" transform="translate(0,0)"/>
<path d="" fill="#767675" transform="translate(0,0)"/>
<path d="" fill="#818181" transform="translate(0,0)"/>
<path d="" fill="#7F7F7F" transform="translate(0,0)"/>
<path d="" fill="#848484" transform="translate(0,0)"/>
<path d="" fill="#454545" transform="translate(0,0)"/>
<path d="" fill="#8A8A8A" transform="translate(0,0)"/>
<path d="" fill="#747474" transform="translate(0,0)"/>
<path d="" fill="#808080" transform="translate(0,0)"/>
<path d="" fill="#000000" transform="translate(0,0)"/>
<path d="" fill="#6F6C6C" transform="translate(0,0)"/>
<path d="" fill="#7F7F7F" transform="translate(0,0)"/>
<path d="" fill="#747276" transform="translate(0,0)"/>
<path d="" fill="#4A4D4A" transform="translate(0,0)"/>
<path d="" fill="#636363" transform="translate(0,0)"/>
<path d="" fill="#969696" transform="translate(0,0)"/>
<path d="" fill="#202020" transform="translate(0,0)"/>
<path d="" fill="#9A9A9A" transform="translate(0,0)"/>
<path d="" fill="#070707" transform="translate(0,0)"/>
<path d="" fill="#BCBCBC" transform="translate(0,0)"/>
<path d="" fill="#202020" transform="translate(0,0)"/>
<path d="" fill="#2E2E2E" transform="translate(0,0)"/>
<path d="" fill="#767676" transform="translate(0,0)"/>
<path d="" fill="#E0E0E0" transform="translate(0,0)"/>
<path d="" fill="#848484" transform="translate(0,0)"/>
<path d="" fill="#161616" transform="translate(0,0)"/>
<path d="" fill="#A6A6A6" transform="translate(0,0)"/>
<path d="" fill="#FFFFFF" transform="translate(0,0)"/>
<path d="" fill="#39393A" transform="translate(0,0)"/>
<path d="" fill="#636363" transform="translate(0,0)"/>
<path d="" fill="#79797D" transform="translate(0,0)"/>
<path d="" fill="#656565" transform="translate(0,0)"/>
<path d="" fill="#7A7A7A" transform="translate(0,0)"/>
<path d="" fill="#CCCCCC" transform="translate(0,0)"/>
<path d="" fill="#090909" transform="translate(0,0)"/>
<path d="" fill="#949494" transform="translate(0,0)"/>
<path d="" fill="#6E696E" transform="translate(0,0)"/>
<path d="" fill="#A0A0A0" transform="translate(0,0)"/>
<path d="" fill="#7D797A" transform="translate(0,0)"/>
<path d="" fill="#787878" transform="translate(0,0)"/>
<path d="" fill="#E1E1E1" transform="translate(0,0)"/>
<path d="" fill="#8F8F8F" transform="translate(0,0)"/>
<path d="" fill="#7C7C7C" transform="translate(0,0)"/>
<path d="" fill="#656565" transform="translate(0,0)"/>
<path d="" fill="#282828" transform="translate(0,0)"/>
<path d="" fill="#5D5D5D" transform="translate(0,0)"/>
<path d="" fill="#515151" transform="translate(0,0)"/>
<path d="" fill="#787878" transform="translate(0,0)"/>
<path d="" fill="#000000" transform="translate(0,0)"/>
<path d="" fill="#191919" transform="translate(0,0)"/>
<path d="" fill="#343434" transform="translate(0,0)"/>
<path d="" fill="#000000" transform="translate(0,0)"/>
<path d="" fill="#000000" transform="translate(0,0)"/>
<path d="" fill="#7A7A7A" transform="translate(0,0)"/>
<path d="" fill="#535353" transform="translate(0,0)"/>
<path d="" fill="#191919" transform="translate(0,0)"/>
<path d="" fill="#343434" transform="translate(0,0)"/>
<path d="" fill="#757575" transform="translate(0,0)"/>
<path d="" fill="#5B5B5B" transform="translate(0,0)"/>
<path d="" fill="#151515" transform="translate(0,0)"/>
<path d="" fill="#4A4A4A" transform="translate(0,0)"/>
<path d="" fill="#B4B4B4" transform="translate(0,0)"/>
<path d="" fill="#BDBDBD" transform="translate(0,0)"/>
<path d="" fill="#16171C" transform="translate(0,0)"/>
<path d="" fill="#7F7F7F" transform="translate(0,0)"/>
<path d="" fill="#4A4A4A" transform="translate(0,0)"/>
<path d="" fill="#5F5F5F" transform="translate(0,0)"/>
<path d="" fill="#7A7A7A" transform="translate(0,0)"/>
<path d="" fill="#1C1C1C" transform="translate(0,0)"/>
<path d="" fill="#595959" transform="translate(0,0)"/>
<path d="" fill="#6D6D6D" transform="translate(0,0)"/>
<path d="" fill="#313131" transform="translate(0,0)"/>
<path d="" fill="#818181" transform="translate(0,0)"/>
<path d="" fill="#0D0D10" transform="translate(0,0)"/>
<path d="" fill="#797979" transform="translate(0,0)"/>
<path d="" fill="#696969" transform="translate(0,0)"/>
<path d="" fill="#393939" transform="translate(0,0)"/>
<path d="" fill="#7A7A7A" transform="translate(0,0)"/>
<path d="" fill="#7E7E7E" transform="translate(0,0)"/>
<path d="" fill="#464646" transform="translate(0,0)"/>
<path d="" fill="#4B4B4B" transform="translate(0,0)"/>
<path d="" fill="#959595" transform="translate(0,0)"/>
<path d="" fill="#8F8F8F" transform="translate(0,0)"/>
<path d="" fill="#8D8D8D" transform="translate(0,0)"/>
<path d="" fill="#646464" transform="translate(0,0)"/>
<path d="" fill="#010101" transform="translate(0,0)"/>
<path d="" fill="#747474" transform="translate(0,0)"/>
<path d="" fill="#5A5A5A" transform="translate(0,0)"/>
<path d="" fill="#9B9B9B" transform="translate(0,0)"/>
<path d="" fill="#000000" transform="translate(0,0)"/>
<path d="" fill="#7D7D7D" transform="translate(0,0)"/>
<path d="" fill="#565656" transform="translate(0,0)"/>
<path d="" fill="#131314" transform="translate(0,0)"/>
<path d="" fill="#737373" transform="translate(0,0)"/>
<path d="" fill="#131316" transform="translate(0,0)"/>
<path d="" fill="#959595" transform="translate(0,0)"/>
<path d="" fill="#6B6B6B" transform="translate(0,0)"/>
<path d="" fill="#757575" transform="translate(0,0)"/>
<path d="" fill="#1F1F20" transform="translate(0,0)"/>
<path d="" fill="#6A6A6A" transform="translate(0,0)"/>
<path d="" fill="#000000" transform="translate(0,0)"/>
<path d="" fill="#828282" transform="translate(0,0)"/>
<path d="" fill="#5E5E5E" transform="translate(0,0)"/>
<path d="" fill="#565656" transform="translate(0,0)"/>
<path d="" fill="#3E3E3E" transform="translate(0,0)"/>
<path d="" fill="#3F3F3F" transform="translate(0,0)"/>
<path d="" fill="#656565" transform="translate(0,0)"/>
<path d="" fill="#141414" transform="translate(0,0)"/>
<path d="" fill="#6F6F6E" transform="translate(0,0)"/>
<path d="" fill="#2A2929" transform="translate(0,0)"/>
<path d="" fill="#000000" transform="translate(0,0)"/>
<path d="" fill="#4F4F4F" transform="translate(0,0)"/>
<path d="" fill="#3A3A3A" transform="translate(0,0)"/>
<path d="" fill="#212121" transform="translate(0,0)"/>
<path d="" fill="#000100" transform="translate(0,0)"/>
<path d="" fill="#707070" transform="translate(0,0)"/>
<path d="" fill="#0C0E0D" transform="translate(0,0)"/>
<path d="" fill="#373737" transform="translate(0,0)"/>
<path d="" fill="#343434" transform="translate(0,0)"/>
<path d="" fill="#070707" transform="translate(0,0)"/>
<path d="" fill="#4B4B4B" transform="translate(0,0)"/>
<path d="" fill="#585858" transform="translate(0,0)"/>
<path d="" fill="#494949" transform="translate(0,0)"/>
<path d="" fill="#7B7B7B" transform="translate(0,0)"/>
<path d="" fill="#282828" transform="translate(0,0)"/>
<path d="" fill="#101010" transform="translate(0,0)"/>
<path d="" fill="#292929" transform="translate(0,0)"/>
<path d="" fill="#737373" transform="translate(0,0)"/>
<path d="" fill="#111111" transform="translate(0,0)"/>
<path d="" fill="#000000" transform="translate(0,0)"/>
<path d="" fill="#5E5F5E" transform="translate(0,0)"/>
<path d="" fill="#555555" transform="translate(0,0)"/>
<path d="" fill="#7F7F7F" transform="translate(0,0)"/>
<path d="" fill="#282828" transform="translate(0,0)"/>
<path d="" fill="#4C4C4C" transform="translate(0,0)"/>
<path d="" fill="#939393" transform="translate(0,0)"/>
<path d="" fill="#626262" transform="translate(0,0)"/>
<path d="" fill="#000000" transform="translate(0,0)"/>
<path d="" fill="#060606" transform="translate(0,0)"/>
<path d="" fill="#7F7F7F" transform="translate(0,0)"/>
<path d="" fill="#0F0F0F" transform="translate(0,0)"/>
<path d="" fill="#424242" transform="translate(0,0)"/>
<path d="" fill="#6D6D6D" transform="translate(0,0)"/>
<path d="" fill="#989898" transform="translate(0,0)"/>
<path d="" fill="#000000" transform="translate(0,0)"/>
<path d="" fill="#060606" transform="translate(0,0)"/>
<path d="" fill="#4B4B4B" transform="translate(0,0)"/>
<path d="" fill="#242424" transform="translate(0,0)"/>
<path d="" fill="#030303" transform="translate(0,0)"/>
<path d="" fill="#3B3B3B" transform="translate(0,0)"/>
<path d="" fill="#585857" transform="translate(0,0)"/>
<path d="" fill="#000000" transform="translate(0,0)"/>
<path d="" fill="#080808" transform="translate(0,0)"/>
<path d="" fill="#818181" transform="translate(0,0)"/>
<path d="" fill="#060606" transform="translate(0,0)"/>
<path d="" fill="#010101" transform="translate(0,0)"/>
<path d="" fill="#737474" transform="translate(0,0)"/>
<path d="" fill="#4B4B4B" transform="translate(0,0)"/>
<path d="" fill="#131313" transform="translate(0,0)"/>
<path d="" fill="#0B0B0B" transform="translate(0,0)"/>
<path d="" fill="#989F9D" transform="translate(0,0)"/>
<path d="" fill="#676767" transform="translate(0,0)"/>
<path d="" fill="#212121" transform="translate(0,0)"/>
<path d="" fill="#333433" transform="translate(0,0)"/>
<path d="" fill="#595959" transform="translate(0,0)"/>
<path d="" fill="#7E7E7E" transform="translate(0,0)"/>
<path d="" fill="#070707" transform="translate(0,0)"/>
<path d="" fill="#000000" transform="translate(0,0)"/>
<path d="" fill="#535353" transform="translate(0,0)"/>
<path d="" fill="#000000" transform="translate(0,0)"/>
<path d="" fill="#2F2F2F" transform="translate(0,0)"/>
<path d="" fill="#232323" transform="translate(0,0)"/>
<path d="" fill="#616161" transform="translate(0,0)"/>
<path d="" fill="#000000" transform="translate(0,0)"/>
<path d="" fill="#868686" transform="translate(0,0)"/>
<path d="" fill="#000000" transform="translate(0,0)"/>
<path d="" fill="#E8E8E8" transform="translate(0,0)"/>
<path d="" fill="#000000" transform="translate(0,0)"/>
<path d="" fill="#282828" transform="translate(0,0)"/>
<path d="" fill="#606060" transform="translate(0,0)"/>
<path d="" fill="#000000" transform="translate(0,0)"/>
<path d="" fill="#5F5F5F" transform="translate(0,0)"/>
<path d="" fill="#131313" transform="translate(0,0)"/>
<path d="" fill="#313131" transform="translate(0,0)"/>
<path d="" fill="#747474" transform="translate(0,0)"/>
<path d="" fill="#232323" transform="translate(0,0)"/>
<path d="" fill="#747474" transform="translate(0,0)"/>
<path d="" fill="#000000" transform="translate(0,0)"/>
<path d="" fill="#6D6D6D" transform="translate(0,0)"/>
<path d="" fill="#969696" transform="translate(0,0)"/>
<path d="" fill="#000000" transform="translate(0,0)"/>
<path d="" fill="#494949" transform="translate(0,0)"/>
<path d="" fill="#0F0F0F" transform="translate(0,0)"/>
<path d="" fill="#707170" transform="translate(0,0)"/>
<path d="" fill="#191919" transform="translate(0,0)"/>
<path d="" fill="#444444" transform="translate(0,0)"/>
<path d="" fill="#444444" transform="translate(0,0)"/>
<path d="" fill="#353635" transform="translate(0,0)"/>
<path d="" fill="#636364" transform="translate(0,0)"/>
<path d="" fill="#000000" transform="translate(0,0)"/>
<path d="" fill="#252525" transform="translate(0,0)"/>
<path d="" fill="#000000" transform="translate(0,0)"/>
<path d="" fill="#484848" transform="translate(0,0)"/>
<path d="" fill="#767677" transform="translate(0,0)"/>
<path d="" fill="#111111" transform="translate(0,0)"/>
<path d="" fill="#181818" transform="translate(0,0)"/>
<path d="" fill="#121212" transform="translate(0,0)"/>
<path d="" fill="#252525" transform="translate(0,0)"/>
<path d="" fill="#000000" transform="translate(0,0)"/>
<path d="" fill="#2F2F2F" transform="translate(0,0)"/>
<path d="" fill="#101010" transform="translate(0,0)"/>
<path d="" fill="#000000" transform="translate(0,0)"/>
<path d="" fill="#464646" transform="translate(0,0)"/>
<path d="" fill="#2C2C2C" transform="translate(0,0)"/>
<path d="" fill="#323232" transform="translate(0,0)"/>
<path d="" fill="#000000" transform="translate(0,0)"/>
<path d="" fill="#696969" transform="translate(0,0)"/>
<path d="" fill="#5E5E5E" transform="translate(0,0)"/>
<path d="" fill="#343436" transform="translate(0,0)"/>
<path d="" fill="#4B4B4B" transform="translate(0,0)"/>
<path d="" fill="#9E9E9F" transform="translate(0,0)"/>
<path d="" fill="#373737" transform="translate(0,0)"/>
<path d="" fill="#040404" transform="translate(0,0)"/>
<path d="" fill="#0D0D0D" transform="translate(0,0)"/>
<path d="" fill="#2E2E2E" transform="translate(0,0)"/>
<path d="" fill="#494949" transform="translate(0,0)"/>
<path d="" fill="#707070" transform="translate(0,0)"/>
<path d="" fill="#505054" transform="translate(0,0)"/>
<path d="" fill="#0B0B0B" transform="translate(0,0)"/>
<path d="" fill="#939393" transform="translate(0,0)"/>
<path d="" fill="#797879" transform="translate(0,0)"/>
</svg>
